<svg width="201" height="38" viewBox="0 0 201 38" fill="none" xmlns="http://www.w3.org/2000/svg">
<path fill-rule="evenodd" clip-rule="evenodd" d="M181.106 1.27265C181.692 0.686866 182.642 0.686866 183.227 1.27265L199.894 17.9393C200.175 18.2206 200.333 18.6022 200.333 19C200.333 19.3978 200.175 19.7793 199.894 20.0606L183.227 36.7273C182.642 37.3131 181.692 37.3131 181.106 36.7273C180.52 36.1415 180.52 35.1918 181.106 34.606L195.212 20.5L0 20.5V17.5H157.163C157.164 17.5 157.166 17.5 157.167 17.5L195.212 17.5L181.106 3.39397C180.52 2.80819 180.52 1.85844 181.106 1.27265Z" fill="#C0B7E8"/>
</svg>
